<svg width="16" height="16" viewBox="0 0 16 16" fill="none" xmlns="http://www.w3.org/2000/svg">
<path d="M14 11.5V13.293L11.5 10.793V7.5C11.5 7.40717 11.4741 7.31618 11.4252 7.23724C11.3764 7.15829 11.3065 7.0945 11.2235 7.053L8.5 5.6905V2.914L9.793 4.207L10.5 3.5L8 1L5.5 3.5L6.207 4.207L7.5 2.914V5.691L4.7765 7.0525C4.69338 7.09403 4.62348 7.15791 4.57464 7.23695C4.5258 7.31599 4.49996 7.40708 4.5 7.5V10.793L2 13.293V11.5H1V15H4.5V14H2.707L5.0985 11.6085L7.7765 12.9475C7.8459 12.9822 7.92242 13.0002 8 13.0002C8.07758 13.0002 8.1541 12.9822 8.2235 12.9475L10.9015 11.6085L13.293 14H11.5V15H15V11.5H14ZM7.5 11.691L5.5 10.691V8.309L7.5 9.309V11.691ZM8 8.441L6.118 7.5L8 6.559L9.882 7.5L8 8.441ZM10.5 10.691L8.5 11.691V9.309L10.5 8.309V10.691Z" fill="white"/>
</svg>
