<svg width="24" height="24" viewBox="0 0 24 24" fill="none" xmlns="http://www.w3.org/2000/svg">
<path d="M11.9998 1.80005C12.6636 1.80005 13.1998 2.3363 13.1998 3.00005V3.6863C16.8786 4.2113 19.7886 7.1213 20.3136 10.8H20.9998C21.6636 10.8 22.1998 11.3363 22.1998 12C22.1998 12.6638 21.6636 13.2 20.9998 13.2H20.3136C19.7886 16.8788 16.8786 19.7888 13.1998 20.3138V21C13.1998 21.6638 12.6636 22.2 11.9998 22.2C11.3361 22.2 10.7998 21.6638 10.7998 21V20.3138C7.12105 19.7888 4.21105 16.8788 3.68605 13.2H2.9998C2.33605 13.2 1.7998 12.6638 1.7998 12C1.7998 11.3363 2.33605 10.8 2.9998 10.8H3.68605C4.21105 7.1213 7.12105 4.2113 10.7998 3.6863V3.00005C10.7998 2.3363 11.3361 1.80005 11.9998 1.80005ZM5.9998 12C5.9998 15.315 8.6848 18 11.9998 18C15.3148 18 17.9998 15.315 17.9998 12C17.9998 8.68505 15.3148 6.00005 11.9998 6.00005C8.6848 6.00005 5.9998 8.68505 5.9998 12ZM11.9998 8.40005C13.9873 8.40005 15.5998 10.0125 15.5998 12C15.5998 13.9875 13.9873 15.6 11.9998 15.6C10.0123 15.6 8.3998 13.9875 8.3998 12C8.3998 10.0125 10.0123 8.40005 11.9998 8.40005Z" fill="black"/>
</svg>
