<svg width="24" height="24" viewBox="0 0 24 24" fill="none" xmlns="http://www.w3.org/2000/svg">
<path d="M12 18.5L9 17M9 17L3 20V7L9 4M9 17V4M9 4L15 7M15 7L21 4V12.5M15 7V14.5" stroke="black" stroke-width="2" stroke-linecap="round" stroke-linejoin="round"/>
<path d="M20.5 15L21.3625 15.8625L20.2787 16.9388L20.8112 17.4713L21.8875 16.3875L22.75 17.25V15H20.5ZM16 17.25L16.8625 16.3875L17.9388 17.4713L18.4713 16.9388L17.3875 15.8625L18.25 15H16V17.25ZM18.25 21.75L17.3875 20.8875L18.4713 19.8112L17.9388 19.2787L16.8625 20.3625L16 19.5V21.75H18.25ZM22.75 19.5L21.8875 20.3625L20.8112 19.2787L20.2787 19.8112L21.3625 20.8875L20.5 21.75H22.75V19.5Z" fill="black"/>
</svg>
